<mxfile host="65bd71144e">
    <diagram id="TTiZYPBWY1A6YvlyVOrY" name="Page-1">
        <mxGraphModel dx="714" dy="576" grid="1" gridSize="10" guides="1" tooltips="1" connect="1" arrows="1" fold="1" page="1" pageScale="1" pageWidth="850" pageHeight="1100" math="0" shadow="0">
            <root>
                <mxCell id="0"/>
                <mxCell id="1" parent="0"/>
                <mxCell id="17" value="Utilisateur" style="swimlane;" vertex="1" parent="1">
                    <mxGeometry x="80" y="280" width="240" height="200" as="geometry">
                        <mxRectangle x="150" y="290" width="100" height="30" as="alternateBounds"/>
                    </mxGeometry>
                </mxCell>
                <mxCell id="19" value="Jouer&lt;br&gt;&amp;nbsp;- prendre 2 token&lt;br&gt;&amp;nbsp;- prendre 3 token&lt;br&gt;&amp;nbsp;- réserver magasin&lt;br&gt;&amp;nbsp;- réserver deck&lt;br&gt;&amp;nbsp;- acheter carte&lt;br&gt;&amp;nbsp; &amp;nbsp;- magasin&lt;br&gt;&amp;nbsp; &amp;nbsp;- carte réservé&lt;br&gt;Observer le plateau&lt;br&gt;Recevoir Patron" style="text;strokeColor=none;fillColor=none;align=left;verticalAlign=middle;spacingLeft=4;spacingRight=4;overflow=hidden;points=[[0,0.5],[1,0.5]];portConstraint=eastwest;rotatable=0;whiteSpace=wrap;html=1;" vertex="1" parent="17">
                    <mxGeometry y="30" width="120" height="160" as="geometry"/>
                </mxCell>
                <mxCell id="20" value="" style="endArrow=none;html=1;" edge="1" parent="17">
                    <mxGeometry width="50" height="50" relative="1" as="geometry">
                        <mxPoint x="119.5" y="180" as="sourcePoint"/>
                        <mxPoint x="119.5" y="40" as="targetPoint"/>
                    </mxGeometry>
                </mxCell>
                <mxCell id="21" value="Plateau&lt;br&gt;Banque&lt;br&gt;Magasin&lt;br&gt;Son inventaire&lt;br&gt;Patrons" style="text;strokeColor=none;fillColor=none;align=left;verticalAlign=middle;spacingLeft=4;spacingRight=4;overflow=hidden;points=[[0,0.5],[1,0.5]];portConstraint=eastwest;rotatable=0;whiteSpace=wrap;html=1;" vertex="1" parent="17">
                    <mxGeometry x="140" y="25" width="90" height="170" as="geometry"/>
                </mxCell>
                <mxCell id="22" value="Patron" style="swimlane;" vertex="1" parent="1">
                    <mxGeometry x="400" y="290" width="140" height="80" as="geometry">
                        <mxRectangle x="150" y="290" width="100" height="30" as="alternateBounds"/>
                    </mxGeometry>
                </mxCell>
                <mxCell id="23" value="Visiter joueur" style="text;strokeColor=none;fillColor=none;align=left;verticalAlign=middle;spacingLeft=4;spacingRight=4;overflow=hidden;points=[[0,0.5],[1,0.5]];portConstraint=eastwest;rotatable=0;whiteSpace=wrap;html=1;" vertex="1" parent="22">
                    <mxGeometry x="10" y="20" width="70" height="60" as="geometry"/>
                </mxCell>
                <mxCell id="24" value="" style="endArrow=none;html=1;exitX=-0.014;exitY=0.75;exitDx=0;exitDy=0;exitPerimeter=0;" edge="1" parent="22" source="25">
                    <mxGeometry width="50" height="50" relative="1" as="geometry">
                        <mxPoint x="70" y="120" as="sourcePoint"/>
                        <mxPoint x="70" y="30" as="targetPoint"/>
                    </mxGeometry>
                </mxCell>
                <mxCell id="25" value="Inventaire Joueur" style="text;strokeColor=none;fillColor=none;align=left;verticalAlign=middle;spacingLeft=4;spacingRight=4;overflow=hidden;points=[[0,0.5],[1,0.5]];portConstraint=eastwest;rotatable=0;whiteSpace=wrap;html=1;" vertex="1" parent="22">
                    <mxGeometry x="70" y="30" width="70" height="40" as="geometry"/>
                </mxCell>
                <mxCell id="30" value="Bank" style="swimlane;startSize=23;" vertex="1" parent="1">
                    <mxGeometry x="400" y="400" width="140" height="80" as="geometry">
                        <mxRectangle x="150" y="290" width="100" height="30" as="alternateBounds"/>
                    </mxGeometry>
                </mxCell>
                <mxCell id="31" value="Donner&lt;br&gt;Recevoir" style="text;strokeColor=none;fillColor=none;align=left;verticalAlign=middle;spacingLeft=4;spacingRight=4;overflow=hidden;points=[[0,0.5],[1,0.5]];portConstraint=eastwest;rotatable=0;whiteSpace=wrap;html=1;" vertex="1" parent="30">
                    <mxGeometry x="10" y="20" width="70" height="60" as="geometry"/>
                </mxCell>
                <mxCell id="32" value="" style="endArrow=none;html=1;exitX=-0.014;exitY=0.75;exitDx=0;exitDy=0;exitPerimeter=0;" edge="1" parent="30" source="33">
                    <mxGeometry width="50" height="50" relative="1" as="geometry">
                        <mxPoint x="70" y="120" as="sourcePoint"/>
                        <mxPoint x="70" y="30" as="targetPoint"/>
                    </mxGeometry>
                </mxCell>
                <mxCell id="33" value="Jetons" style="text;strokeColor=none;fillColor=none;align=left;verticalAlign=middle;spacingLeft=4;spacingRight=4;overflow=hidden;points=[[0,0.5],[1,0.5]];portConstraint=eastwest;rotatable=0;whiteSpace=wrap;html=1;" vertex="1" parent="30">
                    <mxGeometry x="70" y="30" width="70" height="40" as="geometry"/>
                </mxCell>
                <mxCell id="35" value="Bank" style="swimlane;startSize=23;" vertex="1" parent="1">
                    <mxGeometry x="400" y="500" width="140" height="80" as="geometry">
                        <mxRectangle x="150" y="290" width="100" height="30" as="alternateBounds"/>
                    </mxGeometry>
                </mxCell>
                <mxCell id="36" value="Donner&lt;br&gt;Recevoir" style="text;strokeColor=none;fillColor=none;align=left;verticalAlign=middle;spacingLeft=4;spacingRight=4;overflow=hidden;points=[[0,0.5],[1,0.5]];portConstraint=eastwest;rotatable=0;whiteSpace=wrap;html=1;" vertex="1" parent="35">
                    <mxGeometry x="10" y="20" width="70" height="60" as="geometry"/>
                </mxCell>
                <mxCell id="37" value="" style="endArrow=none;html=1;exitX=-0.014;exitY=0.75;exitDx=0;exitDy=0;exitPerimeter=0;" edge="1" parent="35" source="38">
                    <mxGeometry width="50" height="50" relative="1" as="geometry">
                        <mxPoint x="70" y="120" as="sourcePoint"/>
                        <mxPoint x="70" y="30" as="targetPoint"/>
                    </mxGeometry>
                </mxCell>
                <mxCell id="38" value="Jetons" style="text;strokeColor=none;fillColor=none;align=left;verticalAlign=middle;spacingLeft=4;spacingRight=4;overflow=hidden;points=[[0,0.5],[1,0.5]];portConstraint=eastwest;rotatable=0;whiteSpace=wrap;html=1;" vertex="1" parent="35">
                    <mxGeometry x="70" y="30" width="70" height="40" as="geometry"/>
                </mxCell>
                <mxCell id="39" value="Magasin" style="swimlane;startSize=23;" vertex="1" parent="1">
                    <mxGeometry x="80" y="500" width="140" height="80" as="geometry">
                        <mxRectangle x="150" y="290" width="100" height="30" as="alternateBounds"/>
                    </mxGeometry>
                </mxCell>
                <mxCell id="40" value="Piocher&amp;nbsp;&lt;br&gt;Vendre" style="text;strokeColor=none;fillColor=none;align=left;verticalAlign=middle;spacingLeft=4;spacingRight=4;overflow=hidden;points=[[0,0.5],[1,0.5]];portConstraint=eastwest;rotatable=0;whiteSpace=wrap;html=1;" vertex="1" parent="39">
                    <mxGeometry x="10" y="20" width="70" height="60" as="geometry"/>
                </mxCell>
                <mxCell id="41" value="" style="endArrow=none;html=1;exitX=-0.014;exitY=0.75;exitDx=0;exitDy=0;exitPerimeter=0;" edge="1" parent="39" source="42">
                    <mxGeometry width="50" height="50" relative="1" as="geometry">
                        <mxPoint x="70" y="120" as="sourcePoint"/>
                        <mxPoint x="70" y="30" as="targetPoint"/>
                    </mxGeometry>
                </mxCell>
                <mxCell id="42" value="Deck&lt;br&gt;carte" style="text;strokeColor=none;fillColor=none;align=left;verticalAlign=middle;spacingLeft=4;spacingRight=4;overflow=hidden;points=[[0,0.5],[1,0.5]];portConstraint=eastwest;rotatable=0;whiteSpace=wrap;html=1;" vertex="1" parent="39">
                    <mxGeometry x="70" y="30" width="70" height="40" as="geometry"/>
                </mxCell>
                <mxCell id="43" value="Deck" style="swimlane;startSize=23;" vertex="1" parent="1">
                    <mxGeometry x="80" y="600" width="140" height="80" as="geometry">
                        <mxRectangle x="150" y="290" width="100" height="30" as="alternateBounds"/>
                    </mxGeometry>
                </mxCell>
                <mxCell id="44" value="Donner carte aléatoire" style="text;strokeColor=none;fillColor=none;align=left;verticalAlign=middle;spacingLeft=4;spacingRight=4;overflow=hidden;points=[[0,0.5],[1,0.5]];portConstraint=eastwest;rotatable=0;whiteSpace=wrap;html=1;" vertex="1" parent="43">
                    <mxGeometry x="10" y="20" width="70" height="60" as="geometry"/>
                </mxCell>
                <mxCell id="45" value="" style="endArrow=none;html=1;exitX=-0.014;exitY=0.75;exitDx=0;exitDy=0;exitPerimeter=0;" edge="1" parent="43" source="46">
                    <mxGeometry width="50" height="50" relative="1" as="geometry">
                        <mxPoint x="70" y="120" as="sourcePoint"/>
                        <mxPoint x="70" y="30" as="targetPoint"/>
                    </mxGeometry>
                </mxCell>
                <mxCell id="46" value="Carte" style="text;strokeColor=none;fillColor=none;align=left;verticalAlign=middle;spacingLeft=4;spacingRight=4;overflow=hidden;points=[[0,0.5],[1,0.5]];portConstraint=eastwest;rotatable=0;whiteSpace=wrap;html=1;" vertex="1" parent="43">
                    <mxGeometry x="70" y="30" width="70" height="40" as="geometry"/>
                </mxCell>
                <mxCell id="51" value="Jeton" style="swimlane;startSize=23;" vertex="1" parent="1">
                    <mxGeometry x="400" y="600" width="140" height="80" as="geometry">
                        <mxRectangle x="150" y="290" width="100" height="30" as="alternateBounds"/>
                    </mxGeometry>
                </mxCell>
                <mxCell id="52" value="Donner&lt;br&gt;Recevoir" style="text;strokeColor=none;fillColor=none;align=left;verticalAlign=middle;spacingLeft=4;spacingRight=4;overflow=hidden;points=[[0,0.5],[1,0.5]];portConstraint=eastwest;rotatable=0;whiteSpace=wrap;html=1;" vertex="1" parent="51">
                    <mxGeometry x="10" y="20" width="70" height="60" as="geometry"/>
                </mxCell>
                <mxCell id="53" value="" style="endArrow=none;html=1;exitX=-0.014;exitY=0.75;exitDx=0;exitDy=0;exitPerimeter=0;" edge="1" parent="51" source="54">
                    <mxGeometry width="50" height="50" relative="1" as="geometry">
                        <mxPoint x="70" y="120" as="sourcePoint"/>
                        <mxPoint x="70" y="30" as="targetPoint"/>
                    </mxGeometry>
                </mxCell>
                <mxCell id="54" value="Jetons" style="text;strokeColor=none;fillColor=none;align=left;verticalAlign=middle;spacingLeft=4;spacingRight=4;overflow=hidden;points=[[0,0.5],[1,0.5]];portConstraint=eastwest;rotatable=0;whiteSpace=wrap;html=1;" vertex="1" parent="51">
                    <mxGeometry x="70" y="30" width="70" height="40" as="geometry"/>
                </mxCell>
                <mxCell id="55" value="Inventaire Joueur" style="swimlane;startSize=23;" vertex="1" parent="1">
                    <mxGeometry x="240" y="500" width="140" height="80" as="geometry">
                        <mxRectangle x="150" y="290" width="100" height="30" as="alternateBounds"/>
                    </mxGeometry>
                </mxCell>
                <mxCell id="56" value="Garder data" style="text;strokeColor=none;fillColor=none;align=left;verticalAlign=middle;spacingLeft=4;spacingRight=4;overflow=hidden;points=[[0,0.5],[1,0.5]];portConstraint=eastwest;rotatable=0;whiteSpace=wrap;html=1;" vertex="1" parent="55">
                    <mxGeometry x="10" y="20" width="70" height="60" as="geometry"/>
                </mxCell>
                <mxCell id="57" value="" style="endArrow=none;html=1;exitX=-0.014;exitY=0.75;exitDx=0;exitDy=0;exitPerimeter=0;" edge="1" parent="55" source="58">
                    <mxGeometry width="50" height="50" relative="1" as="geometry">
                        <mxPoint x="70" y="120" as="sourcePoint"/>
                        <mxPoint x="70" y="30" as="targetPoint"/>
                    </mxGeometry>
                </mxCell>
                <mxCell id="58" value="Jetons&lt;br&gt;Cartes" style="text;strokeColor=none;fillColor=none;align=left;verticalAlign=middle;spacingLeft=4;spacingRight=4;overflow=hidden;points=[[0,0.5],[1,0.5]];portConstraint=eastwest;rotatable=0;whiteSpace=wrap;html=1;" vertex="1" parent="55">
                    <mxGeometry x="70" y="30" width="70" height="40" as="geometry"/>
                </mxCell>
                <mxCell id="59" value="Carte" style="swimlane;startSize=23;" vertex="1" parent="1">
                    <mxGeometry x="240" y="600" width="140" height="80" as="geometry">
                        <mxRectangle x="150" y="290" width="100" height="30" as="alternateBounds"/>
                    </mxGeometry>
                </mxCell>
                <mxCell id="61" value="" style="endArrow=none;html=1;exitX=-0.014;exitY=0.75;exitDx=0;exitDy=0;exitPerimeter=0;" edge="1" parent="59" source="62">
                    <mxGeometry width="50" height="50" relative="1" as="geometry">
                        <mxPoint x="70" y="120" as="sourcePoint"/>
                        <mxPoint x="70" y="30" as="targetPoint"/>
                    </mxGeometry>
                </mxCell>
                <mxCell id="62" value="Inventaire- Joueur&lt;br&gt;Magasin" style="text;strokeColor=none;fillColor=none;align=left;verticalAlign=middle;spacingLeft=4;spacingRight=4;overflow=hidden;points=[[0,0.5],[1,0.5]];portConstraint=eastwest;rotatable=0;whiteSpace=wrap;html=1;" vertex="1" parent="59">
                    <mxGeometry x="70" y="20" width="70" height="60" as="geometry"/>
                </mxCell>
            </root>
        </mxGraphModel>
    </diagram>
</mxfile>
